<?xml version="1.0" encoding="UTF-8" standalone="no"?>
<!DOCTYPE svg PUBLIC "-//W3C//DTD SVG 1.1//EN" "http://www.w3.org/Graphics/SVG/1.1/DTD/svg11.dtd">
<svg width="100%" height="100%" viewBox="0 0 2160 1080" version="1.1" xmlns="http://www.w3.org/2000/svg" xmlns:xlink="http://www.w3.org/1999/xlink" xml:space="preserve" xmlns:serif="http://www.serif.com/" style="fill-rule:evenodd;clip-rule:evenodd;stroke-linejoin:round;stroke-miterlimit:2;">
    <g transform="matrix(2.19013,0,0,1.095065,-3125.04,-642.695)">
        <g transform="matrix(1.143932,0,-0,2.287864,602.000112,-1017.552274)">
            <path d="M788.362,986.028L743.011,986.028L860.692,867.85C879.349,849.194 906.887,842.891 931.63,851.264C947.155,846.018 964.39,846.348 980.168,852.883C1005.97,863.57 1022.79,888.746 1022.79,916.673L1022.79,916.675C1022.79,944.014 1039.2,968.682 1064.42,979.243C1065.77,979.81 1067.14,980.33 1068.51,980.804C1077.89,977.573 1086.62,972.264 1093.98,965.018L1143.2,916.569L1191.92,867.85C1210.58,849.194 1238.11,842.891 1262.86,851.264C1278.38,846.018 1295.62,846.348 1311.39,852.883C1337.19,863.57 1354.02,888.746 1354.02,916.673L1354.02,916.675C1354.02,944.014 1370.43,968.682 1395.65,979.243C1397,979.81 1398.36,980.33 1399.74,980.804C1409.11,977.573 1417.85,972.264 1425.21,965.018L1474.43,916.568C1474.53,916.462 1474.68,916.403 1474.83,916.403L1519.06,916.403C1519.29,916.403 1519.5,916.544 1519.59,916.758C1519.67,916.973 1519.62,917.219 1519.46,917.382L1470.24,965.832C1451.59,984.195 1424.27,990.324 1399.74,982.012C1384.13,987.291 1366.8,986.927 1350.97,980.298C1325.33,969.558 1308.64,944.475 1308.64,916.675L1308.64,916.673C1308.64,889.209 1292.1,864.449 1266.73,853.939C1265.44,853.408 1264.15,852.919 1262.86,852.472C1253.3,855.763 1244.41,861.209 1236.96,868.658L1188.24,917.379L1188.23,917.382L1139.01,965.832C1120.36,984.195 1093.04,990.324 1068.51,982.012C1052.9,987.291 1035.58,986.927 1019.75,980.298C994.106,969.558 977.417,944.475 977.417,916.675L977.417,916.673C977.417,889.209 960.873,864.449 935.5,853.939C934.219,853.408 932.928,852.919 931.63,852.472C922.069,855.763 913.18,861.209 905.731,868.658L788.362,986.028ZM787.929,984.845L788.085,984.688C788.088,984.685 904.923,867.85 904.923,867.85C912.133,860.64 920.671,855.275 929.86,851.889C905.895,844.354 879.496,850.663 861.5,868.658L745.632,984.527L787.929,984.845ZM1066.74,981.387C1065.82,981.044 1064.89,980.682 1063.98,980.298C1038.34,969.558 1021.65,944.475 1021.65,916.675L1021.65,916.673C1021.65,889.209 1005.1,864.449 979.731,853.939C964.688,847.708 948.298,847.213 933.399,851.89C934.249,852.203 935.095,852.534 935.937,852.883C961.738,863.57 978.56,888.746 978.56,916.673L978.56,916.675C978.56,944.014 994.972,968.682 1020.19,979.243C1035.28,985.565 1051.76,986.094 1066.74,981.387ZM1261.09,851.889C1237.12,844.354 1210.72,850.663 1192.73,868.658L1144.01,917.379L1144,917.382L1094.78,965.832C1087.66,972.84 1079.28,978.066 1070.28,981.387C1094.04,988.866 1120.22,982.727 1138.21,965.018L1187.43,916.569L1236.15,867.85C1243.36,860.64 1251.9,855.275 1261.09,851.889ZM1397.97,981.387C1397.04,981.044 1396.12,980.682 1395.2,980.298C1369.56,969.558 1352.87,944.475 1352.87,916.675L1352.87,916.673C1352.87,889.209 1336.33,864.449 1310.96,853.939C1295.91,847.708 1279.52,847.213 1264.62,851.89C1265.48,852.203 1266.32,852.534 1267.16,852.883C1292.96,863.57 1309.79,888.746 1309.79,916.673L1309.79,916.675C1309.79,944.014 1326.2,968.682 1351.41,979.243C1366.51,985.565 1382.99,986.094 1397.97,981.387ZM1401.5,981.387C1425.26,988.866 1451.45,982.727 1469.44,965.018L1517.66,917.546L1475.06,917.546L1426.01,965.832C1418.89,972.84 1410.51,978.066 1401.5,981.387Z" style="fill:white;"/>
        </g>
        <g transform="matrix(1.873304,0,0,3.746609,-766.877534,-2926.206098)">
            <path d="M1383.21,1108.73C1389.03,1106.75 1394.45,1103.46 1399.01,1098.97L1429.07,1069.38L1458.82,1039.63C1470.15,1028.31 1486.88,1024.5 1501.89,1029.63C1495.96,1031.65 1490.45,1035.02 1485.83,1039.63L1456.08,1069.38L1426.02,1098.97C1414.7,1110.12 1398.1,1113.82 1383.21,1108.73Z" style="fill:white;"/>
        </g>
        <g transform="matrix(1.143932,0,-0,2.287864,223.10023,-796.010174)">
            <path d="M1377.61,888.248L1309.21,888.248L1309.21,819.84C1309.21,847.41 1325.77,872.285 1351.19,882.936C1359.73,886.51 1368.7,888.248 1377.61,888.248Z" style="fill:white;"/>
        </g>
        <g transform="matrix(1.143932,0,-0,2.287864,223.10023,-796.010174)">
            <path d="M1309.75,819.84C1309.75,847.195 1326.17,871.876 1351.4,882.444C1359.87,885.991 1368.77,887.715 1377.61,887.715C1377.9,887.715 1378.14,887.954 1378.14,888.248C1378.14,888.542 1377.9,888.781 1377.61,888.781L1309.21,888.781C1308.92,888.781 1308.68,888.542 1308.68,888.248L1308.68,819.84C1308.68,819.546 1308.92,819.307 1309.21,819.307C1309.51,819.307 1309.75,819.546 1309.75,819.84ZM1309.75,831.93L1309.75,887.715L1365.54,887.715C1360.61,886.838 1355.73,885.414 1350.99,883.427C1329.14,874.278 1313.8,854.713 1309.75,831.93Z" style="fill:white;"/>
        </g>
        <g transform="matrix(1.143932,0,-0,2.287864,819.836496,-796.010174)">
            <circle cx="1357.15" cy="765.097" r="13.736" style="fill:white;"/>
        </g>
        <g transform="matrix(-1.143932,-0,0,-2.287864,3647.910629,2955.362576)">
            <path d="M1377.61,888.248L1309.21,888.248L1309.21,819.84C1309.21,847.41 1325.77,872.285 1351.19,882.936C1359.73,886.51 1368.7,888.248 1377.61,888.248Z" style="fill:white;"/>
        </g>
        <g transform="matrix(-1.143932,-0,0,-2.287864,3647.910629,2955.362576)">
            <path d="M1308.64,819.84C1308.64,819.525 1308.9,819.269 1309.21,819.269C1309.53,819.269 1309.79,819.525 1309.79,819.84C1309.79,847.18 1326.2,871.847 1351.41,882.408C1359.88,885.953 1368.78,887.677 1377.61,887.677C1377.92,887.677 1378.18,887.932 1378.18,888.248C1378.18,888.564 1377.92,888.82 1377.61,888.82L1309.21,888.82C1308.9,888.82 1308.64,888.564 1308.64,888.248L1308.64,819.84ZM1309.79,832.361L1309.79,887.677L1365.11,887.676C1360.32,886.793 1355.58,885.394 1350.97,883.463C1329.25,874.365 1313.96,854.976 1309.79,832.361Z" style="fill:white;"/>
        </g>
        <g transform="matrix(1,0,0,2,-0.000682,-1080.023452)">
            <path d="M1503.34,1157.83L1454.96,1157.47L1587.51,1024.92C1608.09,1004.34 1638.29,997.119 1665.7,1005.74C1655.19,1009.61 1645.43,1015.75 1637.18,1024L1503.53,1157.64L1503.34,1157.83Z" style="fill:white;"/>
        </g>
        <g transform="matrix(1,0,0,2,-0.000682,-1080.023452)">
            <path d="M2205.24,1153.88C2215.54,1150.08 2225.12,1144.1 2233.27,1136.08L2289.38,1080.85L2338.11,1080.85L2282.95,1135.15C2262.37,1155.41 2232.41,1162.43 2205.24,1153.88Z" style="fill:white;"/>
        </g>
    </g>
</svg>
